

Love or Hate Us You Can't Beat Us @ PublicHD . ORG

You Won't Find Every Thing But You Will Get Something

-------------------------------------------------------------



Late.Autumn.2010.720p.HDRip.H264.AAC-Playy [PublicHD]



General

   Format : MPEG-4

   Format profile : Base Media / Version 2

   Codec ID : mp42

   File size : 2.71 GiB

   Duration : 1h 55mn

   Overall bit rate : 3 372 Kbps

   Encoded date : UTC 2012-03-19 08:08:49

   Tagged date : UTC 2012-03-19 08:08:49

 Video #201

   ID : 201

   Format : AVC

   Format/Info : Advanced Video Codec

   Format profile : High@L4.1

   Format settings, CABAC : Yes

   Format settings, ReFrames : 2 frames

   Codec ID : avc1

   Codec ID/Info : Advanced Video Coding

   Duration : 1h 55mn

   Bit rate mode : Variable

   Bit rate : 3 000 Kbps

   Width : 1 280 pixels

   Height : 720 pixels

   Display aspect ratio : 16:9

   Frame rate mode : Constant

   Frame rate : 29.970 fps

   Color space : YUV

   Chroma subsampling : 4:2:0

   Bit depth : 8 bits

   Scan type : Progressive

   Bits/(Pixel*Frame) : 0.109

   Stream size : 2.49 GiB (92%)

   Writing library : x264 core 116

   Tagged date : UTC 2012-03-19 08:11:28

 Audio #101

   ID : 101

   Format : AAC

   Format/Info : Advanced Audio Codec

   Format version : Version 4

   Format profile : LC

   Format settings, SBR : No

   Codec ID : 40

   Duration : 1h 55mn

   Bit rate mode : Variable

   Bit rate : 128 Kbps

   Channel(s) : 2 channels

   Channel positions : Front: L R

   Sampling rate : 48.0 KHz

   Stream size : 105 MiB (4%)